<?xml version="1.0" encoding="utf-8"?>
<!-- Generator: Adobe Illustrator 28.0.0, SVG Export Plug-In . SVG Version: 6.00 Build 0)  -->
<svg version="1.1" id="Layer_1" xmlns="http://www.w3.org/2000/svg" xmlns:xlink="http://www.w3.org/1999/xlink" x="0px" y="0px"
	 viewBox="0 0 24.7 28" style="enable-background:new 0 0 24.7 28;" xml:space="preserve">
<style type="text/css">
	.st0{fill:#1572B6;}
	.st1{fill:#33A9DC;}
	.st2{fill:#FFFFFF;}
	.st3{fill:#EBEBEB;}
</style>
<g>
	<path class="st0" d="M2.2,25.2L0,0h24.7l-2.2,25.2L12.3,28L2.2,25.2z"/>
	<path class="st1" d="M12.3,25.9l8.2-2.3l1.9-21.5H12.3V25.9z"/>
	<path class="st2" d="M12.3,11.2h4.1L16.7,8h-4.4V4.9h0h7.7L20,5.8l-0.8,8.5h-6.9V11.2z"/>
	<path class="st3" d="M12.4,19.2L12.4,19.2l-3.5-0.9l-0.2-2.5H7H5.6L6,20.7l6.3,1.8l0,0L12.4,19.2z"/>
	<path class="st2" d="M16.2,14.2l-0.4,4.1l-3.4,0.9v3.2l6.3-1.8l0-0.5l0.5-6H16.2z"/>
	<g>
		<path class="st3" d="M12.4,4.9v1.9V8v0H4.9h0L4.8,7.3L4.7,5.8L4.6,4.9L12.4,4.9z"/>
		<path class="st3" d="M12.3,11.2v1.9v1.2v0H9h0l-0.1-0.7L8.7,12l-0.1-0.8H12.3z"/>
	</g>
</g>
</svg>
