<?xml version="1.0" encoding="utf-8"?>
<!-- Generator: Adobe Illustrator 28.0.0, SVG Export Plug-In . SVG Version: 6.00 Build 0)  -->
<svg version="1.1" id="Layer_1" xmlns="http://www.w3.org/2000/svg" xmlns:xlink="http://www.w3.org/1999/xlink" x="0px" y="0px"
	 viewBox="0 0 24.7 28" style="enable-background:new 0 0 24.7 28;" xml:space="preserve">
<style type="text/css">
	.st0{fill:#E44F26;}
	.st1{fill:#F1662A;}
	.st2{fill:#EBEBEB;}
	.st3{fill:#FFFFFF;}
</style>
<g>
	<path class="st0" d="M2.2,25.2L0,0h24.7l-2.2,25.2L12.3,28L2.2,25.2z"/>
	<path class="st1" d="M12.3,25.9l8.2-2.3l1.9-21.5H12.3V25.9z"/>
	<path class="st2" d="M12.3,11.4H8.3L8,8.2h4.4V5.2h0H4.6L4.7,6l0.8,8.5h6.9V11.4z"/>
	<path class="st2" d="M12.3,19.4L12.3,19.4l-3.5-0.9L8.7,16H7H5.6L6,20.9l6.3,1.8l0,0L12.3,19.4z"/>
	<g>
		<path class="st3" d="M12.3,11.4v3.1h3.8l-0.4,4l-3.4,0.9v3.2l6.3-1.8l0-0.5l0.7-8.1l0.1-0.8h-0.8L12.3,11.4z"/>
		<path class="st3" d="M12.3,5.2v1.9v1.2v0h7.5h0l0.1-0.7L20,6l0.1-0.8L12.3,5.2z"/>
	</g>
</g>
</svg>
