<?xml version="1.0" encoding="utf-8"?>
<!-- Generator: Adobe Illustrator 28.0.0, SVG Export Plug-In . SVG Version: 6.00 Build 0)  -->
<svg version="1.1" id="Layer_1" xmlns="http://www.w3.org/2000/svg" xmlns:xlink="http://www.w3.org/1999/xlink" x="0px" y="0px"
	 viewBox="0 0 959.7 935.7" style="enable-background:new 0 0 959.7 935.7;" xml:space="preserve">
<style type="text/css">
	.st0{fill:#FF4F79;}
	.st1{fill:#5C0A29;}
</style>
<g>
	<path class="st0" d="M259.4,244.8v410.3c0,4.4,1.6,6.4,5.2,6.4H343c3.6,0,5.6-2,5.6-6.4V244.8l0,0l0,0c0-0.1,0-0.1,0-0.2
		c0-0.4-0.2-0.8-0.4-1l0,0c-0.2-2.3-2.2-4-4.5-4c-0.2,0-0.5,0-0.7,0.1h-78C261.4,239.6,259.4,241.2,259.4,244.8z"/>
	<path class="st0" d="M708,613.5c-0.4-8.8-0.8-16.8-0.8-24V208l0,0c-0.4-1.6-1.8-2.8-3.5-2.8c-0.2,0-0.3,0-0.5,0H622l0,0
		c-2.8,0-4,1.6-4,4.4v126.3c-4.7-0.4-8.6-0.4-12.2-0.8c-2.6-0.3-5.2-0.4-7.8-0.4c-0.3,0-0.6,0-0.8,0h0.3c-2.2-0.1-4.5-0.1-6.7-0.1
		c-34.7,0-67.3,8.6-94.8,23.3l-0.8,0.4c-25.8,14.4-47.3,35.4-62.7,61.5l0.4-0.8c-14.3,24.3-22.4,52.7-22.4,82.9c0,0.8,0,1.6,0,2.2
		v-0.3c-0.1,2.3-0.1,4.6-0.1,6.9c0,31.1,8.2,60.3,22.1,84.6l0.4,0.6c14.1,23.1,34.7,41.7,60,53.8l-1.2-0.5
		c25.5,11.9,53.9,18.5,83.9,18.5c1.1,0,2.3,0,3.3,0l0,0c21.8,0,43.1-2.1,61.5-5.6l1.9-0.3c22.7-4.1,44.6-10.8,63.3-18.9l0,0
		c2.3-1,4-3.3,4-6c0-0.1,0-0.3,0-0.4C709.2,629.9,708.8,621.9,708,613.5z M606.3,590c-0.9,0-1.8,0-2.6-0.1
		c-5.2,0.4-10.8,0.8-16.8,0.8l0,0c-0.2,0-0.4,0-0.6,0c-11.7,0-22.9-1.9-32.6-5.2l-0.5-0.1c-10.1-3.2-19.2-8.7-26.7-15.9l0,0
		c-7.8-7.8-13.9-17.3-18-28.4l0.3,0.8c-4.6-12.2-7.1-25.4-7.1-39.2c0-1,0-1.9,0-2.8v0.2c-0.1-1.4-0.1-2.9-0.1-4.3
		c0-17.3,4.9-33.4,13.3-46.7l0.2-0.3c8.5-12.2,19.9-22.3,33.8-29.3l-0.6,0.3c13.4-6.8,28.6-10.7,44.6-10.7c0.4,0,0.8,0,1.1,0l0,0
		c4.4,0,8.8,0.4,13.2,0.8l0.5,0.1c3.7,0.5,7.4,1.2,10.3,1.9v176l0.2-0.1C614.6,589.2,610.5,590,606.3,590z"/>
	<path class="st1" d="M789.8,0L789.8,0H169.9h-0.1C76,0,0,76,0,169.8v0.1l0,0v596c0,93.8,76,169.8,169.8,169.8h620.1
		c93.8,0,169.8-76,169.8-169.8v-0.1l0,0V170v-0.1C959.6,76.1,883.5,0,789.8,0z M265,239.6h78c0.2,0,0.5-0.1,0.7-0.1
		c2.3,0,4.3,1.8,4.5,4l0,0c0.3,0.3,0.4,0.6,0.4,1c0,0.1,0,0.1,0,0.2V655c0,4.4-2,6.4-5.6,6.4h-78.4c-3.6,0-5.2-2-5.2-6.4V244.8
		C259.4,241.2,261.4,239.6,265,239.6z M705.7,643L705.7,643c-18.7,8.1-40.6,14.8-63.4,18.9l-1.9,0.3c-18.5,3.5-39.8,5.6-61.5,5.6
		l0,0c-1,0-2.1,0-3.3,0c-30,0-58.4-6.6-83.9-18.5l1.2,0.5c-25.4-12.1-46-30.7-60-53.8l-0.4-0.6c-13.9-24.4-22.1-53.5-22.1-84.6
		c0-2.3,0-4.6,0.1-6.9v0.3c0-0.7,0-1.5,0-2.2c0-30.2,8.2-58.6,22.4-82.9l-0.4,0.8c15.4-26.1,37-47.2,62.7-61.5l0.8-0.4
		c27.5-14.7,60.1-23.3,94.8-23.3c2.2,0,4.5,0,6.7,0.1h-0.3c0.2,0,0.5,0,0.8,0c2.6,0,5.3,0.1,7.8,0.4c3.5,0.4,7.5,0.4,12.2,0.8V209.6
		c0-2.8,1.2-4.4,4-4.4l0,0h81.2c0.1,0,0.3,0,0.5,0c1.7,0,3.1,1.2,3.5,2.8l0,0v381.5c0,7.2,0.4,15.2,0.8,24
		c0.8,8.4,1.2,16.4,1.6,23.2c0,0.1,0,0.3,0,0.4C709.6,639.7,708,642.1,705.7,643z"/>
	<path class="st1" d="M618.1,411.9c-2.9-0.7-6.5-1.4-10.3-1.9l-0.5-0.1c-4.4-0.4-8.8-0.8-13.2-0.8l0,0c-0.3,0-0.7,0-1.1,0
		c-16.1,0-31.2,3.8-44.6,10.7l0.6-0.3c-13.9,7-25.3,17-33.8,29.3l-0.2,0.3c-8.3,13.3-13.3,29.4-13.3,46.7c0,1.4,0,2.9,0.1,4.3v-0.2
		c0,0.8,0,1.8,0,2.8c0,13.8,2.5,27,7.1,39.2l-0.3-0.8c4.1,11.1,10.2,20.6,18,28.4l0,0c7.5,7.1,16.6,12.6,26.7,15.9l0.5,0.1
		c9.7,3.3,20.9,5.2,32.6,5.2c0.2,0,0.4,0,0.6,0l0,0c6,0,11.6-0.4,16.8-0.8c0.8,0.1,1.7,0.1,2.6,0.1c4.2,0,8.3-0.8,12-2.2l-0.2,0.1
		L618.1,411.9L618.1,411.9z"/>
</g>
</svg>
