<?xml version="1.0" encoding="UTF-8"?>
<svg id="Layer_1" xmlns="http://www.w3.org/2000/svg" viewBox="0 0 253.27 252.49">
  <path d="M84.69,6.44c-10.05,3.56-19.52,8.34-28.23,14.16-3.2,2.15-6.3,4.43-9.29,6.85-6.95,5.63-13.31,11.98-18.94,18.94-2.42,2.99-4.7,6.08-6.84,9.28-5.83,8.71-10.61,18.18-14.16,28.23-3.18,8.99-5.37,18.44-6.45,28.23-.52,4.63-.78,9.34-.78,14.11s.26,9.48.78,14.12c1.08,9.79,3.27,19.24,6.45,28.23,3.55,10.04,8.33,19.51,14.15,28.22,2.15,3.2,4.43,6.3,6.85,9.29,5.63,6.95,11.99,13.31,18.94,18.94,2.99,2.42,6.09,4.7,9.29,6.85,8.71,5.82,18.18,10.6,28.23,14.16,8.99,3.17,18.44,5.36,28.22,6.44v-86.31c-12.03-4.26-21.56-13.79-25.81-25.82-1.56-4.42-2.41-9.17-2.41-14.12s.85-9.69,2.41-14.11c4.25-12.03,13.78-21.56,25.81-25.82V0c-9.78,1.08-19.23,3.27-28.22,6.44ZM84.69,215.53c-9.96-4.73-19.01-11.08-26.79-18.72-.49-.46-.98-.95-1.44-1.44-7.64-7.78-13.99-16.82-18.72-26.78-4.17-8.77-7.08-18.26-8.5-28.23h28.63c2.12,10.43,6.54,20.03,12.71,28.23,4.01,5.35,8.76,10.1,14.11,14.11v32.83ZM84.69,69.78c-5.35,4.02-10.11,8.77-14.12,14.12-6.16,8.2-10.58,17.8-12.7,28.23h-28.63c1.42-9.97,4.33-19.46,8.5-28.23,4.73-9.96,11.08-19,18.72-26.78.47-.5.95-.99,1.45-1.45,7.78-7.64,16.82-13.98,26.78-18.71v32.82Z"/>
  <path d="M253.27,140.36c-1.08,9.79-3.27,19.24-6.45,28.23-3.55,10.04-8.33,19.51-14.15,28.22-2.15,3.2-4.43,6.3-6.85,9.29-5.63,6.95-11.98,13.31-18.94,18.94-2.99,2.42-6.08,4.7-9.28,6.84-8.71,5.83-18.18,10.61-28.23,14.16-8.99,3.18-18.44,5.37-28.23,6.45V0c9.79,1.08,19.24,3.27,28.23,6.45v209.08c9.96-4.73,19-11.08,26.78-18.72.5-.47.99-.95,1.45-1.45,7.63-7.78,13.98-16.81,18.71-26.77,4.17-8.77,7.08-18.26,8.5-28.23h28.46Z"/>
</svg>