<?xml version="1.0" encoding="UTF-8"?>
<svg xmlns="http://www.w3.org/2000/svg" version="1.1" viewBox="0 0 583.6 365.9">
  <defs>
    <style>
      .cls-1 {
        fill: #fff;
      }
    </style>
  </defs>
  <!-- Generator: Adobe Illustrator 28.6.0, SVG Export Plug-In . SVG Version: 1.2.0 Build 709)  -->
  <g>
    <g id="Logo">
      <g>
        <polygon class="cls-1" points="347.2 289.6 417.7 220 16 220 16 145.9 419 145.9 348.1 75 400.4 22.6 561 183.2 400.9 343.3 347.2 289.6"/>
        <path d="M400.4,28.3l154.9,154.9-154.4,154.4-48-48,74.6-73.6H20v-66.1h408.7l-74.9-74.9,46.6-46.7M400.4,17l-5.7,5.7-46.6,46.7-5.6,5.7,5.7,5.7,61.2,61.2H12v82.1h396l-60.7,59.9-5.7,5.7,5.7,5.7,48,48,5.7,5.7,5.7-5.7,154.4-154.4,5.7-5.7-5.7-5.7L406.1,22.6l-5.7-5.7h0Z"/>
      </g>
    </g>
  </g>
</svg>