<?xml version="1.0" encoding="UTF-8"?>
<svg xmlns="http://www.w3.org/2000/svg" version="1.1" viewBox="0 0 583.6 365.9">
  <defs>
    <style>
      .cls-1 {
        fill: #fff;
      }
    </style>
  </defs>
  <!-- Generator: Adobe Illustrator 28.6.0, SVG Export Plug-In . SVG Version: 1.2.0 Build 709)  -->
  <g>
    <g id="Logo">
      <g>
        <polygon class="cls-1" points="22.6 182.7 182.7 22.6 236.4 76.3 165.8 145.9 567.6 145.9 567.6 220 164.5 220 235.4 290.9 183.2 343.2 22.6 182.7"/>
        <path d="M182.7,28.3l48,48-74.6,73.6h407.5v66.1H154.9l74.9,74.9-46.6,46.7L28.3,182.7,182.7,28.3M182.7,17l-5.7,5.7L22.6,177l-5.7,5.7,5.7,5.7,154.9,154.9,5.7,5.7,5.7-5.7,46.6-46.7,5.6-5.7-5.7-5.7-61.2-61.2h397.4v-82.1H175.6l60.7-59.9,5.7-5.7-5.7-5.7-48-48-5.7-5.7h0Z"/>
      </g>
    </g>
  </g>
</svg>