<?xml version="1.0" encoding="UTF-8"?>
<svg xmlns="http://www.w3.org/2000/svg" version="1.1" viewBox="0 0 365.9 583.6">
  <defs>
    <style>
      .cls-1 {
        fill: #fff;
      }
    </style>
  </defs>
  <!-- Generator: Adobe Illustrator 28.6.0, SVG Export Plug-In . SVG Version: 1.2.0 Build 709)  -->
  <g>
    <g id="Layer_1">
      <g>
        <polygon points="139.9 573.6 139.9 179 75 243.9 14.1 183.2 183.2 14.1 351.7 182.7 289.6 244.9 226 180.5 226 573.6 139.9 573.6"/>
        <path class="cls-1" d="M183.2,28.3l154.4,154.4-48,48-73.6-74.6v407.5h-66.1V154.9l-74.9,74.9-46.7-46.6L183.2,28.3M183.2,0l-14.1,14.1L14.2,169,0,183.2l14.2,14.1,46.7,46.6,14.1,14.1,14.1-14.1,40.8-40.8v380.4h106.1V204.8l39.4,39.9,14.1,14.3,14.2-14.2,48-48,14.1-14.1-14.1-14.1L197.3,14.1,183.2,0h0Z"/>
      </g>
    </g>
  </g>
</svg>